<?xml version="1.0" encoding="utf-8"?>
<!-- Generator: Adobe Illustrator 19.1.0, SVG Export Plug-In . SVG Version: 6.00 Build 0)  -->
<svg version="1.1" id="layer1" xmlns="http://www.w3.org/2000/svg" xmlns:xlink="http://www.w3.org/1999/xlink" x="0px" y="0px"
	 viewBox="-293 373 25 48" style="enable-background:new -293 373 25 48;" xml:space="preserve">
<style type="text/css">
	.st0{fill:#bfbfbf;}
</style>
<path class="st0" d="M-268,373c-14.9,0-25,10.8-25,24s10.5,24,25,24C-268,408.5-268,387.4-268,373z M-269.5,418.3
	c-9.5,0-21-7.8-21-21.3c0-13.3,11.4-21.3,21-21.3C-269.5,382.3-269.5,405.1-269.5,418.3z"/>
<path class="st0" d="M-274.4,396.4h-4.5v-4.5c0-0.3-0.3-0.6-0.6-0.6c-0.3,0-0.6,0.3-0.6,0.6v4.5h-4.5c-0.3,0-0.6,0.3-0.6,0.6
	c0,0.3,0.3,0.6,0.6,0.6h4.5v4.5c0,0.3,0.3,0.6,0.6,0.6c0.3,0,0.6-0.3,0.6-0.6l0,0v-4.5h4.5c0.3,0,0.6-0.3,0.6-0.6
	C-273.8,396.7-274.1,396.4-274.4,396.4L-274.4,396.4L-274.4,396.4z"/>
</svg>
