<?xml version="1.0" encoding="utf-8"?>
<!-- Generator: Adobe Illustrator 19.1.0, SVG Export Plug-In . SVG Version: 6.00 Build 0)  -->
<svg version="1.1" id="layer1" xmlns="http://www.w3.org/2000/svg" xmlns:xlink="http://www.w3.org/1999/xlink" x="0px" y="0px"
	 viewBox="-293 373 25 48" style="enable-background:new -293 373 25 48;" xml:space="preserve">
<style type="text/css">
	.st0{fill:#bfbfbf;}
</style>
<path class="st0" d="M-293,421c14.5,0,25-10.8,25-24s-10.1-24-25-24C-293,387.4-293,408.5-293,421z M-291.5,375.7
	c9.6,0,21,8,21,21.3c0,13.5-11.5,21.3-21,21.3C-291.5,405.1-291.5,382.3-291.5,375.7z"/>
<path class="st0" d="M-275.2,396.4h-11c-0.3,0-0.6,0.3-0.6,0.6s0.3,0.6,0.6,0.6h11c0.3,0,0.6-0.3,0.6-0.6S-274.9,396.4-275.2,396.4
	L-275.2,396.4L-275.2,396.4z"/>
</svg>
